<svg xmlns="http://www.w3.org/2000/svg" version="1.1" xmlns:xlink="http://www.w3.org/1999/xlink" xmlns:svgjs="http://svgjs.dev/svgjs" width="2000" height="1952" viewBox="0 0 2000 1952"><g transform="matrix(1,0,0,1,0.35063906917116583,0.7917427537836375)"><svg viewBox="0 0 253 247" data-background-color="#ffffff" preserveAspectRatio="xMidYMid meet" height="1952" width="2000" xmlns="http://www.w3.org/2000/svg" xmlns:xlink="http://www.w3.org/1999/xlink"><g id="tight-bounds" transform="matrix(1,0,0,1,-0.0439321627791287,-0.09997365579206985)"><svg viewBox="0 0 253.0880118689788 247.2" height="247.2" width="253.0880118689788"><g><svg viewBox="0 0 253.0880118689788 247.2" height="247.2" width="253.0880118689788"><g><svg viewBox="0 0 253.0880118689788 247.2" height="247.2" width="253.0880118689788"><g id="textblocktransform"><svg viewBox="0 0 253.0880118689788 247.2" height="247.2" width="253.0880118689788" id="textblock"><g><svg viewBox="0 0 253.0880118689788 247.2" height="247.2" width="253.0880118689788"><path d="M252.495 53.02C251.306 27.36 247.915 20.227 247.915 20.227 237.504-6.202 224.511-0.506 212.839 3.292 192.231 3.446 171.707 9.091 151.147 12.119 107.992 12.581 64.468 4.986 21.527 23.717 17.494 29.464-4.185 24.846 0.717 56.304 2.002 69.39 6.69 83.913 6.548 95.922 7.19 98.026 8.082 93.202 8.463 96.23 9.796 104.39 11.973 100.541 13.758 105.365 11.271 118.246 13.056 128.971 14.757 140.21 11.759 143.135 7.916 141.749 6.191 151.449 6.012 158.479 5.048 157.145 3.989 156.837 3.216 156.632 1.657 157.402 1.919 159.608 2.812 167.152-1.02 171.514 1.384 178.904-0.27 186.91 2.526 193.838 2.145 202.511 2.098 204.255 2.359 205.744 2.776 206.154 4.62 208.361 1.931 212.672 2.217 217.342 21.135 249.262 41.659 227.195 61.041 241.872 66.074 231.608 62.291 245.516 64.301 243.36 65.872 240.846 67.014 251.263 68.787 245.362 69.061 243.668 68.644 239.665 69.62 240.435 70.132 240.846 70.584 240.743 70.655 238.382 70.762 234.841 69.822 237.048 69.572 235.201 72.273 225.861 71.607 248.081 74.141 247.158 74.022 244.438 73.285 240.538 74.796 241.051 76.295 237.151 76.342 233.918 77.675 242.693 77.723 244.592 77.961 245.926 78.341 246.85 82.506 237.305 86.646 250.237 91.013 245.926 93.69 241.205 96.26 248.492 98.973 246.696 99.925 245.259 100.888 242.693 101.805 247.004 113.025 247.928 124.982 244.079 135.619 247.158 164.044 241.41 194.42 249.518 224.392 241.923 231.459 238.998 238.801 234.841 245.69 231.506 245.69 231.506 251.27 222.371 251.27 181.316S252.46 145.393 252.638 112.703C252.817 80.013 253.65 78.679 252.46 53.02Z" opacity="1" fill="#000000" data-fill-palette-color="tertiary"></path><g transform="matrix(1,0,0,1,55.76832,26.230666666666668)"><svg width="141.5513718689788" viewBox="4.25 -34.6 25.15 34.6" height="194.73866666666666" data-palette-color="#ffffff"><path d="M16.6 0L16.6 0 4.25 0 4.25-34.6 16.6-34.6Q25.05-34.6 27.8-27.9L27.8-27.9Q29.4-24.05 29.4-17.8L29.4-17.8Q29.4-4.75 22.9-1.35L22.9-1.35Q20.3 0 16.6 0ZM25.45-17.8L25.45-17.8Q25.45-27.75 21-30.2L21-30.2Q19.2-31.2 16.6-31.2L16.6-31.2 8.1-31.2 8.1-3.4 16.6-3.4Q25.45-3.4 25.45-17.8Z" opacity="1" transform="matrix(1,0,0,1,0,0)" fill="#ffffff" class="wordmark-text-0" data-fill-palette-color="quaternary" id="text-0"></path></svg></g></svg></g></svg></g></svg></g><g></g></svg></g><defs></defs></svg><rect width="253.0880118689788" height="247.2" fill="none" stroke="none" visibility="hidden"></rect></g></svg></g></svg>